<?xml version="1.0" encoding="UTF-8" standalone="no"?>
<svg
   viewBox="0 0 100 100"
   fill="none"
   version="1.1"
   id="svg14"
   width="100"
   height="100"
   xmlns="http://www.w3.org/2000/svg"
   xmlns:svg="http://www.w3.org/2000/svg">
  <defs
     id="defs18" />
  <path
     d="m 25.088762,50.000001 c 0,0 -18.683426,-18.683425 -12.455617,-37.366851 6.227808,-18.6834259 24.911234,-6.2278093 31.139042,12.455617 l 6.227809,24.911234"
     fill="#72aaff"
     id="path2"
     style="stroke-width:1" />
  <path
     d="m 74.91123,50.000001 c 0,0 18.683426,-18.683425 12.455617,-37.366851 C 81.139039,-6.0502759 62.455613,6.4053407 56.227805,25.088767 l -6.227809,24.911234"
     fill="#72aaff"
     id="path4"
     style="stroke-width:1" />
  <path
     d="m 25.088762,50.000001 c 0,0 -24.91123409,12.455617 -18.683426,37.366852 6.227809,18.683427 31.139043,6.227808 37.366851,-18.683426 l 6.227809,-18.683426"
     fill="#97c0ff"
     id="path6"
     style="stroke-width:1" />
  <path
     d="m 74.91123,50.000001 c 0,0 24.911232,12.455617 18.683426,37.366852 C 87.366847,106.05028 62.455613,93.594661 56.227805,68.683427 L 49.999996,50.000001"
     fill="#97c0ff"
     id="path8"
     style="stroke-width:1" />
  <ellipse
     cx="50"
     cy="50"
     rx="3.7366853"
     ry="18.683426"
     fill="#3b8cfc"
     id="ellipse10"
     style="stroke-width:1" />
  <path
     d="M 49.999996,31.316576 C 47.508873,25.088767 45.01775,18.860958 43.772187,12.63315 m 6.227809,18.683426 C 52.49112,25.088767 54.982244,18.860958 56.227805,12.63315"
     stroke="#3b8cfc"
     stroke-width="1.5"
     stroke-linecap="round"
     id="path12" />
</svg>
